<?xml version="1.0" encoding="utf-8"?>
<!-- Generator: Adobe Illustrator 17.0.2, SVG Export Plug-In . SVG Version: 6.00 Build 0)  -->
<!DOCTYPE svg PUBLIC "-//W3C//DTD SVG 1.1//EN" "http://www.w3.org/Graphics/SVG/1.1/DTD/svg11.dtd">
<svg version="1.1" id="Ebene_1" xmlns="http://www.w3.org/2000/svg" xmlns:xlink="http://www.w3.org/1999/xlink" x="0px" y="0px"
	 width="210.999px" height="64px" viewBox="0 0 210.999 64" enable-background="new 0 0 210.999 64" xml:space="preserve">
<path d="M92.003,23.5V9.875h3.125v40.688c0,0-0.957,1.102-2.75,1.938c-1.375,0.641-2.709,1-4.125,1.25
	c-1.417,0.25-2.562,0.375-3.438,0.375c-1.167,0-2.25-0.229-3.25-0.688s-1.875-1.083-2.625-1.875
	c-0.75-0.791-1.344-1.729-1.781-2.812c-0.438-1.083-0.656-2.229-0.656-3.438v-14.75c0-1.208,0.219-2.344,0.656-3.406
	s1.031-2,1.781-2.812s1.625-1.447,2.625-1.906c1-0.458,2.083-0.688,3.25-0.688c0.708,0,1.666,0.073,2.875,0.219
	C88.898,22.115,90.336,22.625,92.003,23.5z M91.94,48.688V27.125c-1.459-0.958-2.834-1.562-4.125-1.812
	c-1.292-0.25-2.292-0.375-3-0.375c-1.459,0-2.688,0.531-3.688,1.594s-1.5,2.344-1.5,3.844v15.188c0,0.75,0.135,1.448,0.406,2.094
	c0.271,0.646,0.635,1.209,1.094,1.688c0.458,0.479,1,0.865,1.625,1.156c0.625,0.292,1.291,0.438,2,0.438
	c0.375,0,0.938-0.052,1.688-0.156s1.51-0.25,2.281-0.438c0.771-0.188,1.469-0.416,2.094-0.688S91.815,49.062,91.94,48.688z
	 M100.127,30.562c0-1.25,0.219-2.416,0.656-3.5c0.438-1.083,1.041-2.021,1.812-2.812c0.771-0.791,1.666-1.416,2.688-1.875
	c1.021-0.458,2.135-0.688,3.344-0.688h2.125c1.166,0,2.271,0.229,3.312,0.688s1.958,1.084,2.75,1.875
	c0.791,0.792,1.406,1.729,1.844,2.812c0.438,1.084,0.656,2.25,0.656,3.5v2.062c0,1.75-0.312,3.219-0.938,4.406
	s-1.479,2.156-2.562,2.906c-1.084,0.75-2.344,1.281-3.781,1.594S109.064,42,107.439,42c-0.667,0-1.334-0.021-2-0.062
	c-0.667-0.041-1.354-0.104-2.062-0.188v3.75c0.291,1.667,1.072,2.99,2.344,3.969c1.271,0.979,2.719,1.469,4.344,1.469
	c0.166,0,0.697-0.094,1.594-0.281l2.844-0.594c1.166-0.25,2.458-0.541,3.875-0.875l0.75,3.312c-1.542,0.334-2.938,0.604-4.188,0.812
	c-1.084,0.209-2.115,0.396-3.094,0.562c-0.979,0.166-1.573,0.25-1.781,0.25c-1.334,0-2.604-0.24-3.812-0.719
	c-1.209-0.479-2.271-1.156-3.188-2.031c-0.917-0.875-1.636-1.906-2.156-3.094c-0.521-1.188-0.781-2.489-0.781-3.906V30.562
	L100.127,30.562z M110.752,38.5h0.125c0.75,0,1.438-0.156,2.062-0.469s1.166-0.729,1.625-1.25c0.458-0.521,0.822-1.114,1.094-1.781
	c0.271-0.666,0.406-1.375,0.406-2.125V30.25c0-1-0.188-1.844-0.562-2.531s-0.865-1.239-1.469-1.656
	c-0.604-0.416-1.312-0.719-2.125-0.906s-1.656-0.281-2.531-0.281c-0.792,0-1.553,0.125-2.281,0.375
	c-0.729,0.25-1.365,0.604-1.906,1.062c-0.542,0.459-0.979,1.021-1.312,1.688c-0.334,0.667-0.5,1.417-0.5,2.25v8.188
	C103.378,38.439,110.752,38.5,110.752,38.5z M126.189,44.312c0,1,0.177,1.906,0.531,2.719c0.354,0.812,0.844,1.511,1.469,2.094
	c0.625,0.584,1.344,1.031,2.156,1.344s1.677,0.469,2.594,0.469c0.416,0,0.938-0.052,1.562-0.156
	c0.625-0.104,1.229-0.219,1.812-0.344c0.708-0.166,1.438-0.354,2.188-0.562l1,2.875c-0.834,0.292-1.625,0.521-2.375,0.688
	c-0.667,0.166-1.386,0.312-2.156,0.438c-0.771,0.125-1.448,0.188-2.031,0.188c-1.375,0-2.656-0.24-3.844-0.719
	s-2.229-1.156-3.125-2.031c-0.896-0.875-1.604-1.906-2.125-3.094c-0.521-1.188-0.781-2.489-0.781-3.906V31.25
	c0-1.416,0.26-2.719,0.781-3.906c0.521-1.188,1.219-2.197,2.094-3.031c0.875-0.833,1.906-1.489,3.094-1.969
	c1.188-0.479,2.469-0.719,3.844-0.719c0.666,0,1.364,0.084,2.094,0.25c0.729,0.167,1.406,0.354,2.031,0.562
	c0.75,0.209,1.479,0.459,2.188,0.75l-0.75,2.688c-0.625-0.208-1.271-0.396-1.938-0.562c-0.584-0.166-1.188-0.312-1.812-0.438
	s-1.229-0.188-1.812-0.188c-1.834,0-3.406,0.594-4.719,1.781s-1.969,2.781-1.969,4.781L126.189,44.312L126.189,44.312z
	 M162.876,21.188v24.375c0,1.209-0.219,2.334-0.656,3.375c-0.438,1.042-1.031,1.948-1.781,2.719s-1.625,1.375-2.625,1.812
	s-2.084,0.656-3.25,0.656h-2.062c-1.167,0-2.25-0.219-3.25-0.656s-1.875-1.041-2.625-1.812s-1.334-1.677-1.75-2.719
	c-0.417-1.041-0.625-2.166-0.625-3.375V21.188c0-1.208,0.219-2.333,0.656-3.375c0.438-1.041,1.031-1.947,1.781-2.719
	c0.75-0.771,1.625-1.375,2.625-1.812s2.083-0.656,3.25-0.656h2.062c1.125,0,2.188,0.219,3.188,0.656s1.875,1.042,2.625,1.812
	c0.75,0.771,1.344,1.678,1.781,2.719C162.657,18.854,162.876,19.979,162.876,21.188L162.876,21.188z M152.563,50.812h2
	c1.416,0,2.625-0.531,3.625-1.594s1.5-2.344,1.5-3.844V21.188c0-1.666-0.584-2.947-1.75-3.844c-1.167-0.896-2.521-1.344-4.062-1.344
	c-0.875,0-1.698,0.084-2.469,0.25c-0.771,0.167-1.448,0.459-2.031,0.875c-0.584,0.417-1.053,0.948-1.406,1.594
	c-0.354,0.646-0.531,1.469-0.531,2.469v24.188c0,1.5,0.489,2.781,1.469,3.844C149.886,50.281,151.104,50.812,152.563,50.812
	L152.563,50.812z M191.812,30.562c0-1.25,0.219-2.416,0.656-3.5c0.438-1.083,1.041-2.021,1.812-2.812s1.666-1.416,2.688-1.875
	c1.021-0.458,2.135-0.688,3.344-0.688h2.125c1.166,0,2.271,0.229,3.312,0.688s1.958,1.084,2.75,1.875
	c0.791,0.792,1.406,1.729,1.844,2.812c0.438,1.084,0.656,2.25,0.656,3.5v2.062c0,1.75-0.312,3.219-0.938,4.406
	s-1.479,2.156-2.562,2.906c-1.084,0.75-2.344,1.281-3.781,1.594S200.75,42,199.125,42c-0.667,0-1.334-0.021-2-0.062
	c-0.667-0.041-1.354-0.104-2.062-0.188v3.75c0.291,1.667,1.072,2.99,2.344,3.969c1.271,0.979,2.719,1.469,4.344,1.469
	c0.166,0,0.697-0.094,1.594-0.281l2.844-0.594c1.166-0.25,2.458-0.541,3.875-0.875l0.75,3.312c-1.542,0.334-2.938,0.604-4.188,0.812
	c-1.084,0.209-2.115,0.396-3.094,0.562c-0.979,0.166-1.573,0.25-1.781,0.25c-1.334,0-2.604-0.24-3.812-0.719
	c-1.209-0.479-2.271-1.156-3.188-2.031s-1.636-1.906-2.156-3.094c-0.521-1.188-0.781-2.489-0.781-3.906V30.562L191.812,30.562z
	 M202.438,38.5h0.125c0.75,0,1.438-0.156,2.062-0.469s1.166-0.729,1.625-1.25c0.458-0.521,0.822-1.114,1.094-1.781
	c0.271-0.666,0.406-1.375,0.406-2.125V30.25c0-1-0.188-1.844-0.562-2.531s-0.865-1.239-1.469-1.656
	c-0.604-0.416-1.312-0.719-2.125-0.906s-1.656-0.281-2.531-0.281c-0.792,0-1.553,0.125-2.281,0.375
	c-0.729,0.25-1.365,0.604-1.906,1.062c-0.542,0.459-0.979,1.021-1.312,1.688c-0.334,0.667-0.5,1.417-0.5,2.25v8.188L202.438,38.5
	L202.438,38.5z M183.688,23.5V9.875h3.125v40.688c0,0-0.956,1.102-2.75,1.938c-1.375,0.641-2.709,1-4.125,1.25
	c-1.417,0.25-2.562,0.375-3.438,0.375c-1.167,0-2.25-0.229-3.25-0.688s-1.875-1.083-2.625-1.875
	c-0.75-0.791-1.344-1.729-1.781-2.812c-0.438-1.083-0.656-2.229-0.656-3.438v-14.75c0-1.208,0.219-2.344,0.656-3.406
	s1.031-2,1.781-2.812s1.625-1.447,2.625-1.906c1-0.458,2.083-0.688,3.25-0.688c0.708,0,1.666,0.073,2.875,0.219
	C180.583,22.115,182.021,22.625,183.688,23.5z M183.625,48.688V27.125c-1.459-0.958-2.834-1.562-4.125-1.812
	c-1.292-0.25-2.292-0.375-3-0.375c-1.459,0-2.688,0.531-3.688,1.594s-1.5,2.344-1.5,3.844v15.188c0,0.75,0.135,1.448,0.406,2.094
	c0.271,0.646,0.635,1.209,1.094,1.688c0.458,0.479,1,0.865,1.625,1.156c0.625,0.292,1.291,0.438,2,0.438
	c0.375,0,0.938-0.052,1.688-0.156s1.51-0.25,2.281-0.438c0.771-0.188,1.469-0.416,2.094-0.688S183.5,49.062,183.625,48.688z"/>
<polygon fill="#EF4B33" points="26.465,36.688 35.882,36.688 37.535,27.312 28.118,27.312 "/>
<path fill="#EF4B33" d="M32,0C14.327,0,0,14.327,0,32v32h32c17.673,0,32-14.327,32-32S49.673,0,32,0z M51.412,27.312H40.66
	l-1.653,9.375h11.081l-0.551,3.125H38.456l-2.039,11.562h-3.125l2.039-11.562h-9.417l-2.039,11.562H20.75l2.039-11.562H12.037
	l0.551-3.125H23.34l1.653-9.375H13.912l0.551-3.125h11.081l2.039-11.562h3.125l-2.039,11.562h9.417l2.039-11.562h3.125
	l-2.039,11.562h10.752L51.412,27.312z"/>
</svg>
